<?xml version="1.0" encoding="UTF-8" standalone="no"?>
<!-- Created with Inkscape (http://www.inkscape.org/) -->

<svg
   width="39.139214mm"
   height="25.103937mm"
   viewBox="0 0 39.139214 25.103937"
   version="1.1"
   id="svg1"
   sodipodi:docname="autofetch_af_pending.svg"
   inkscape:version="1.4.3 (0d15f750, 2025-12-25)"
   xmlns:inkscape="http://www.inkscape.org/namespaces/inkscape"
   xmlns:sodipodi="http://sodipodi.sourceforge.net/DTD/sodipodi-0.dtd"
   xmlns="http://www.w3.org/2000/svg"
   xmlns:svg="http://www.w3.org/2000/svg">
  <sodipodi:namedview
     id="namedview1"
     pagecolor="#ffffff"
     bordercolor="#666666"
     borderopacity="1.0"
     inkscape:showpageshadow="2"
     inkscape:pageopacity="0.0"
     inkscape:pagecheckerboard="0"
     inkscape:deskcolor="#d1d1d1"
     inkscape:document-units="mm"
     inkscape:zoom="0.44586034"
     inkscape:cx="-68.40707"
     inkscape:cy="548.37799"
     inkscape:window-width="1792"
     inkscape:window-height="1092"
     inkscape:window-x="0"
     inkscape:window-y="28"
     inkscape:window-maximized="0"
     inkscape:current-layer="svg1" />
  <defs
     id="defs1">
    <rect
       x="136.29678"
       y="195.44444"
       width="369.02994"
       height="123.43859"
       id="rect1" />
  </defs>
  <g
     id="layer1"
     transform="translate(-46.022332,-90.864078)">
    <text
       xml:space="preserve"
       transform="scale(0.26458333)"
       id="text1"
       style="font-style:normal;font-variant:normal;font-weight:normal;font-stretch:normal;font-size:40px;line-height:1.25;font-family:AppleGothic;-inkscape-font-specification:AppleGothic;white-space:pre;shape-inside:url(#rect1);display:inline" />
    <path
       id="text2"
       style="font-weight:bold;font-size:50.8px;line-height:1.25;font-family:'Sukhumvit Set';-inkscape-font-specification:'Sukhumvit Set Bold';stroke-width:0.227057"
       d="m 56.995306,90.864078 c -1.896533,0 -3.674575,0.187227 -5.334041,0.561348 -1.659467,0.349179 -3.013968,0.78579 -4.063835,1.309558 l 1.422135,3.291973 c 1.083734,-0.473885 2.201301,-0.835225 3.352767,-1.084638 1.185334,-0.274355 2.472213,-0.411782 3.860747,-0.411782 2.980266,0 4.470528,0.960467 4.470528,2.880952 v 0.598644 h -3.454053 c -1.7272,0 -3.285083,0.111956 -4.673616,0.336429 -1.388534,0.224472 -2.574239,0.586192 -3.556373,1.085019 -0.948266,0.498827 -1.693139,1.147379 -2.235005,1.945499 -0.508,0.79812 -0.762228,1.77095 -0.762228,2.91825 0,0.87295 0.203382,1.64581 0.609782,2.31922 0.4064,0.67342 0.948408,1.25981 1.625741,1.75864 0.7112,0.47388 1.523694,0.83561 2.438094,1.08502 0.9144,0.24941 1.896723,0.3741 2.94659,0.3741 0.948267,0 1.79483,-0.0876 2.539897,-0.26221 0.745066,-0.14965 1.405541,-0.34886 1.981274,-0.59826 0.575733,-0.27436 1.066895,-0.57393 1.473295,-0.89817 0.4064,-0.34917 0.761802,-0.69816 1.066602,-1.04733 l 0.711068,2.3569 h 5.588289 v -7.55328 h 3.629752 v 10.55982 h 6.35 v -10.55982 h 6.756177 v -3.366942 h -6.756177 v -1.122697 c 0,-0.972713 0.287781,-1.720862 0.863514,-2.244631 0.575733,-0.523768 1.574833,-0.785506 2.997233,-0.785506 1.2192,0 2.2183,0.162136 2.997233,0.486374 l 1.320849,-2.880952 c -0.778933,-0.324238 -1.659566,-0.57362 -2.641699,-0.74821 -0.948267,-0.199531 -2.049057,-0.299132 -3.302124,-0.299132 -3.048,0 -5.249064,0.561302 -6.603731,1.683663 -1.3208,1.122361 -1.981275,2.705906 -1.981275,4.751098 v 1.159993 h -3.629752 v -0.789693 c 0,-2.144957 -0.813011,-3.816129 -2.438611,-5.013314 -1.6256,-1.197185 -4.148514,-1.795933 -7.569047,-1.795933 z m 0.203088,10.288462 h 3.505213 v 0.89778 c 0,0.57365 -0.135244,1.1226 -0.406177,1.64636 -0.270933,0.52377 -0.660404,0.98509 -1.168404,1.38416 -0.508,0.39906 -1.117629,0.72333 -1.828829,0.97275 -0.7112,0.22447 -1.490142,0.33681 -2.336808,0.33681 -0.8128,0 -1.490051,-0.19959 -2.031918,-0.59865 -0.541866,-0.424 -0.81287,-0.97295 -0.81287,-1.64637 0,-0.94777 0.440316,-1.68356 1.32085,-2.20733 0.880533,-0.52377 2.133343,-0.78551 3.758943,-0.78551 z" />
    <path
       id="rect2"
       style="fill:#ffd42a;stroke:#000000;stroke-width:0.0928821"
       d="m 66.73699,110.48872 14.065534,-0.15035 -6.70448,5.5707 z" />
  </g>
</svg>
